<mxfile host="app.diagrams.net" agent="Mozilla/5.0 (Windows NT 10.0; Win64; x64) AppleWebKit/537.36 (KHTML, like Gecko) Chrome/133.0.0.0 Safari/537.36" version="26.0.16" pages="4">
  <diagram name="Página-1" id="uFn_RlruNAOmfCU6DOyg">
    <mxGraphModel dx="1434" dy="772" grid="1" gridSize="10" guides="1" tooltips="1" connect="1" arrows="1" fold="1" page="1" pageScale="1" pageWidth="827" pageHeight="1169" math="0" shadow="0">
      <root>
        <mxCell id="0" />
        <mxCell id="1" parent="0" />
        <mxCell id="StYqIQCcK9R3T2u1Hgg_-12" value="" style="edgeStyle=orthogonalEdgeStyle;rounded=0;orthogonalLoop=1;jettySize=auto;html=1;fillColor=#dae8fc;strokeColor=#6c8ebf;exitX=1;exitY=0.3333333333333333;exitDx=0;exitDy=0;exitPerimeter=0;" edge="1" parent="1" source="StYqIQCcK9R3T2u1Hgg_-10" target="StYqIQCcK9R3T2u1Hgg_-11">
          <mxGeometry relative="1" as="geometry">
            <Array as="points">
              <mxPoint x="360" y="460" />
              <mxPoint x="360" y="430" />
            </Array>
          </mxGeometry>
        </mxCell>
        <mxCell id="StYqIQCcK9R3T2u1Hgg_-14" value="" style="edgeStyle=orthogonalEdgeStyle;rounded=0;orthogonalLoop=1;jettySize=auto;html=1;fillColor=#dae8fc;strokeColor=#6c8ebf;" edge="1" parent="1" target="StYqIQCcK9R3T2u1Hgg_-13">
          <mxGeometry relative="1" as="geometry">
            <mxPoint x="330" y="540" as="sourcePoint" />
            <Array as="points">
              <mxPoint x="330" y="550" />
              <mxPoint x="360" y="550" />
              <mxPoint x="360" y="660" />
            </Array>
          </mxGeometry>
        </mxCell>
        <mxCell id="StYqIQCcK9R3T2u1Hgg_-11" value="&lt;h4&gt;&lt;span style=&quot;background-color: transparent;&quot;&gt;&lt;font style=&quot;vertical-align: inherit;&quot;&gt;&lt;font style=&quot;vertical-align: inherit; color: rgb(51, 153, 255);&quot;&gt;&lt;font style=&quot;vertical-align: inherit;&quot;&gt;&lt;font style=&quot;vertical-align: inherit;&quot;&gt;Confirmar reservas&amp;nbsp;&lt;/font&gt;&lt;/font&gt;&lt;/font&gt;&lt;/font&gt;&lt;/span&gt;&lt;/h4&gt;" style="ellipse;whiteSpace=wrap;html=1;verticalAlign=top;fillColor=#dae8fc;strokeColor=#6c8ebf;" vertex="1" parent="1">
          <mxGeometry x="420" y="390" width="130" height="80" as="geometry" />
        </mxCell>
        <mxCell id="StYqIQCcK9R3T2u1Hgg_-13" value="&lt;h4&gt;&lt;font style=&quot;color: rgb(51, 153, 255);&quot;&gt;Gerenciar disponibilidade de quartos&lt;/font&gt;&lt;/h4&gt;" style="ellipse;whiteSpace=wrap;html=1;verticalAlign=top;fillColor=#dae8fc;strokeColor=#6c8ebf;" vertex="1" parent="1">
          <mxGeometry x="410" y="620" width="160" height="80" as="geometry" />
        </mxCell>
        <mxCell id="StYqIQCcK9R3T2u1Hgg_-10" value="&lt;h4&gt;&lt;font style=&quot;vertical-align: inherit;&quot;&gt;&lt;font style=&quot;vertical-align: inherit; color: rgb(51, 153, 255);&quot;&gt;Recepcionista&lt;/font&gt;&lt;/font&gt;&lt;/h4&gt;" style="shape=umlActor;verticalLabelPosition=bottom;verticalAlign=top;html=1;outlineConnect=0;fillColor=#dae8fc;strokeColor=#6c8ebf;" vertex="1" parent="1">
          <mxGeometry x="270" y="420" width="60" height="120" as="geometry" />
        </mxCell>
      </root>
    </mxGraphModel>
  </diagram>
  <diagram id="rSVWNXLHna9wNY04Fz5a" name="Página-2">
    <mxGraphModel dx="1434" dy="772" grid="1" gridSize="10" guides="1" tooltips="1" connect="1" arrows="1" fold="1" page="1" pageScale="1" pageWidth="827" pageHeight="1169" math="0" shadow="0">
      <root>
        <mxCell id="0" />
        <mxCell id="1" parent="0" />
        <mxCell id="o4qM1YYjKO20fYkrlfDJ-3" value="" style="edgeStyle=orthogonalEdgeStyle;rounded=0;orthogonalLoop=1;jettySize=auto;html=1;fillColor=#e1d5e7;strokeColor=#9673a6;exitX=1;exitY=0.3333333333333333;exitDx=0;exitDy=0;exitPerimeter=0;" edge="1" parent="1" source="o4qM1YYjKO20fYkrlfDJ-1" target="o4qM1YYjKO20fYkrlfDJ-2">
          <mxGeometry relative="1" as="geometry">
            <Array as="points">
              <mxPoint x="355" y="600" />
              <mxPoint x="355" y="530" />
            </Array>
          </mxGeometry>
        </mxCell>
        <mxCell id="o4qM1YYjKO20fYkrlfDJ-5" value="" style="edgeStyle=orthogonalEdgeStyle;rounded=0;orthogonalLoop=1;jettySize=auto;html=1;fillColor=#e1d5e7;strokeColor=#9673a6;entryX=0.287;entryY=0.05;entryDx=0;entryDy=0;entryPerimeter=0;" edge="1" parent="1" source="o4qM1YYjKO20fYkrlfDJ-1" target="o4qM1YYjKO20fYkrlfDJ-4">
          <mxGeometry relative="1" as="geometry">
            <mxPoint x="310" y="660" as="sourcePoint" />
            <mxPoint x="435" y="660" as="targetPoint" />
            <Array as="points">
              <mxPoint x="316" y="690" />
              <mxPoint x="430" y="690" />
              <mxPoint x="430" y="719" />
              <mxPoint x="433" y="719" />
            </Array>
          </mxGeometry>
        </mxCell>
        <mxCell id="o4qM1YYjKO20fYkrlfDJ-1" value="&lt;h4&gt;&lt;font style=&quot;color: rgb(166, 128, 184);&quot;&gt;Cliente&lt;/font&gt;&lt;/h4&gt;" style="shape=umlActor;verticalLabelPosition=bottom;verticalAlign=top;html=1;outlineConnect=0;fillColor=#e1d5e7;strokeColor=#9673a6;" vertex="1" parent="1">
          <mxGeometry x="260" y="560" width="60" height="120" as="geometry" />
        </mxCell>
        <mxCell id="o4qM1YYjKO20fYkrlfDJ-2" value="&lt;h4&gt;&lt;font style=&quot;color: rgb(166, 128, 184);&quot;&gt;Fazer reserva&lt;/font&gt;&lt;/h4&gt;" style="ellipse;whiteSpace=wrap;html=1;verticalAlign=top;fillColor=#e1d5e7;strokeColor=#9673a6;" vertex="1" parent="1">
          <mxGeometry x="390" y="490" width="110" height="80" as="geometry" />
        </mxCell>
        <mxCell id="o4qM1YYjKO20fYkrlfDJ-4" value="&lt;h4&gt;&lt;font style=&quot;color: rgb(166, 128, 184);&quot;&gt;Cancelar reservas&lt;/font&gt;&lt;/h4&gt;" style="ellipse;whiteSpace=wrap;html=1;verticalAlign=top;fillColor=#e1d5e7;strokeColor=#9673a6;" vertex="1" parent="1">
          <mxGeometry x="400" y="720" width="115" height="80" as="geometry" />
        </mxCell>
      </root>
    </mxGraphModel>
  </diagram>
  <diagram id="uHYAFM2-c8hbepgOybDB" name="Página-3">
    <mxGraphModel dx="2261" dy="772" grid="1" gridSize="10" guides="1" tooltips="1" connect="1" arrows="1" fold="1" page="1" pageScale="1" pageWidth="827" pageHeight="1169" math="0" shadow="0">
      <root>
        <mxCell id="0" />
        <mxCell id="1" parent="0" />
        <mxCell id="iWzQM8uCmGT6_NtoIqlF-5" value="Cliente" style="shape=umlActor;verticalLabelPosition=bottom;verticalAlign=top;html=1;outlineConnect=0;" vertex="1" parent="1">
          <mxGeometry x="-70" y="260" width="50" height="100" as="geometry" />
        </mxCell>
        <mxCell id="iWzQM8uCmGT6_NtoIqlF-8" value="" style="endArrow=none;html=1;rounded=0;" edge="1" parent="1">
          <mxGeometry width="50" height="50" relative="1" as="geometry">
            <mxPoint x="-20" y="260" as="sourcePoint" />
            <mxPoint x="70" y="190" as="targetPoint" />
            <Array as="points" />
          </mxGeometry>
        </mxCell>
        <mxCell id="iWzQM8uCmGT6_NtoIqlF-10" value="" style="endArrow=none;html=1;rounded=0;" edge="1" parent="1">
          <mxGeometry width="50" height="50" relative="1" as="geometry">
            <mxPoint x="-10" y="290" as="sourcePoint" />
            <mxPoint x="60" y="270" as="targetPoint" />
          </mxGeometry>
        </mxCell>
        <mxCell id="iWzQM8uCmGT6_NtoIqlF-11" value="" style="endArrow=none;html=1;rounded=0;" edge="1" parent="1">
          <mxGeometry width="50" height="50" relative="1" as="geometry">
            <mxPoint x="-10" y="370" as="sourcePoint" />
            <mxPoint x="110" y="500" as="targetPoint" />
          </mxGeometry>
        </mxCell>
        <mxCell id="iWzQM8uCmGT6_NtoIqlF-14" value="Navegar pelo catálago" style="ellipse;whiteSpace=wrap;html=1;" vertex="1" parent="1">
          <mxGeometry x="60" y="130" width="120" height="80" as="geometry" />
        </mxCell>
        <mxCell id="iWzQM8uCmGT6_NtoIqlF-15" value="Colocar item no carrinho" style="ellipse;whiteSpace=wrap;html=1;" vertex="1" parent="1">
          <mxGeometry x="60" y="230" width="120" height="80" as="geometry" />
        </mxCell>
        <mxCell id="iWzQM8uCmGT6_NtoIqlF-16" value="Finalizar compra" style="ellipse;whiteSpace=wrap;html=1;" vertex="1" parent="1">
          <mxGeometry x="100" y="470" width="120" height="80" as="geometry" />
        </mxCell>
        <mxCell id="iWzQM8uCmGT6_NtoIqlF-17" value="" style="endArrow=none;dashed=1;html=1;rounded=0;" edge="1" parent="1" target="iWzQM8uCmGT6_NtoIqlF-18">
          <mxGeometry width="50" height="50" relative="1" as="geometry">
            <mxPoint x="160" y="470" as="sourcePoint" />
            <mxPoint x="160" y="400" as="targetPoint" />
          </mxGeometry>
        </mxCell>
        <mxCell id="iWzQM8uCmGT6_NtoIqlF-19" value="&amp;lt;&amp;lt;extends&amp;gt;&amp;gt;" style="edgeLabel;html=1;align=center;verticalAlign=middle;resizable=0;points=[];" vertex="1" connectable="0" parent="iWzQM8uCmGT6_NtoIqlF-17">
          <mxGeometry x="-0.15" y="-2" relative="1" as="geometry">
            <mxPoint x="-2" y="-3" as="offset" />
          </mxGeometry>
        </mxCell>
        <mxCell id="iWzQM8uCmGT6_NtoIqlF-18" value="Informar endereço" style="ellipse;whiteSpace=wrap;html=1;" vertex="1" parent="1">
          <mxGeometry x="100" y="350" width="120" height="80" as="geometry" />
        </mxCell>
        <mxCell id="iWzQM8uCmGT6_NtoIqlF-20" value="" style="endArrow=none;dashed=1;html=1;rounded=0;" edge="1" parent="1">
          <mxGeometry width="50" height="50" relative="1" as="geometry">
            <mxPoint x="220" y="510" as="sourcePoint" />
            <mxPoint x="480" y="510" as="targetPoint" />
          </mxGeometry>
        </mxCell>
        <mxCell id="iWzQM8uCmGT6_NtoIqlF-22" value="" style="endArrow=none;dashed=1;html=1;rounded=0;" edge="1" parent="1" target="41KvBn-HKGD1uZ8KGqbA-1">
          <mxGeometry width="50" height="50" relative="1" as="geometry">
            <mxPoint x="210" y="490" as="sourcePoint" />
            <mxPoint x="310" y="390" as="targetPoint" />
          </mxGeometry>
        </mxCell>
        <mxCell id="41KvBn-HKGD1uZ8KGqbA-12" value="&amp;lt;&amp;lt;extends&amp;gt;&amp;gt;" style="edgeLabel;html=1;align=center;verticalAlign=middle;resizable=0;points=[];" vertex="1" connectable="0" parent="iWzQM8uCmGT6_NtoIqlF-22">
          <mxGeometry x="-0.0932" y="-4" relative="1" as="geometry">
            <mxPoint as="offset" />
          </mxGeometry>
        </mxCell>
        <mxCell id="41KvBn-HKGD1uZ8KGqbA-1" value="Preencher dados do cartão de crédito&amp;nbsp;" style="ellipse;whiteSpace=wrap;html=1;" vertex="1" parent="1">
          <mxGeometry x="294" y="330" width="120" height="80" as="geometry" />
        </mxCell>
        <mxCell id="41KvBn-HKGD1uZ8KGqbA-2" value="Faturar compra" style="ellipse;whiteSpace=wrap;html=1;" vertex="1" parent="1">
          <mxGeometry x="450" y="470" width="120" height="80" as="geometry" />
        </mxCell>
        <mxCell id="41KvBn-HKGD1uZ8KGqbA-3" value="Sistema" style="shape=umlActor;verticalLabelPosition=bottom;verticalAlign=top;html=1;outlineConnect=0;" vertex="1" parent="1">
          <mxGeometry x="690" y="330" width="50" height="100" as="geometry" />
        </mxCell>
        <mxCell id="41KvBn-HKGD1uZ8KGqbA-4" value="" style="endArrow=none;html=1;rounded=0;" edge="1" parent="1">
          <mxGeometry width="50" height="50" relative="1" as="geometry">
            <mxPoint x="570" y="500" as="sourcePoint" />
            <mxPoint x="680" y="440" as="targetPoint" />
          </mxGeometry>
        </mxCell>
        <mxCell id="41KvBn-HKGD1uZ8KGqbA-5" value="" style="endArrow=none;html=1;rounded=0;" edge="1" parent="1" target="41KvBn-HKGD1uZ8KGqbA-6">
          <mxGeometry width="50" height="50" relative="1" as="geometry">
            <mxPoint x="680" y="370" as="sourcePoint" />
            <mxPoint x="670" y="370" as="targetPoint" />
            <Array as="points" />
          </mxGeometry>
        </mxCell>
        <mxCell id="41KvBn-HKGD1uZ8KGqbA-6" value="Verificar dados do cartão de crédito" style="ellipse;whiteSpace=wrap;html=1;" vertex="1" parent="1">
          <mxGeometry x="480" y="330" width="120" height="80" as="geometry" />
        </mxCell>
        <mxCell id="41KvBn-HKGD1uZ8KGqbA-7" value="" style="endArrow=none;html=1;rounded=0;" edge="1" parent="1" target="41KvBn-HKGD1uZ8KGqbA-8">
          <mxGeometry width="50" height="50" relative="1" as="geometry">
            <mxPoint x="710" y="460" as="sourcePoint" />
            <mxPoint x="710" y="460" as="targetPoint" />
          </mxGeometry>
        </mxCell>
        <mxCell id="41KvBn-HKGD1uZ8KGqbA-8" value="Enviar e-mail" style="ellipse;whiteSpace=wrap;html=1;" vertex="1" parent="1">
          <mxGeometry x="510" y="585" width="120" height="80" as="geometry" />
        </mxCell>
        <mxCell id="41KvBn-HKGD1uZ8KGqbA-9" value="" style="endArrow=none;dashed=1;html=1;rounded=0;entryX=0;entryY=0.5;entryDx=0;entryDy=0;" edge="1" parent="1" target="41KvBn-HKGD1uZ8KGqbA-6">
          <mxGeometry width="50" height="50" relative="1" as="geometry">
            <mxPoint x="414" y="370" as="sourcePoint" />
            <mxPoint x="464" y="320" as="targetPoint" />
          </mxGeometry>
        </mxCell>
        <mxCell id="41KvBn-HKGD1uZ8KGqbA-10" value="&amp;lt;&amp;lt;incluide&amp;gt;&amp;gt;" style="edgeLabel;html=1;align=center;verticalAlign=middle;resizable=0;points=[];" vertex="1" connectable="0" parent="41KvBn-HKGD1uZ8KGqbA-9">
          <mxGeometry x="-0.0606" y="2" relative="1" as="geometry">
            <mxPoint as="offset" />
          </mxGeometry>
        </mxCell>
      </root>
    </mxGraphModel>
  </diagram>
  <diagram id="TSN42jv9VTAaNcQnjHFR" name="Página-4">
    <mxGraphModel dx="2261" dy="772" grid="1" gridSize="10" guides="1" tooltips="1" connect="1" arrows="1" fold="1" page="1" pageScale="1" pageWidth="827" pageHeight="1169" math="0" shadow="0">
      <root>
        <mxCell id="0" />
        <mxCell id="1" parent="0" />
        <mxCell id="hA0IL_piV-cJqZjO7HWO-1" value="Recepcionista" style="shape=umlActor;verticalLabelPosition=bottom;verticalAlign=top;html=1;outlineConnect=0;" vertex="1" parent="1">
          <mxGeometry x="10" y="140" width="50" height="100" as="geometry" />
        </mxCell>
        <mxCell id="hA0IL_piV-cJqZjO7HWO-2" value="Funcionário do estoque&amp;nbsp;" style="shape=umlActor;verticalLabelPosition=bottom;verticalAlign=top;html=1;outlineConnect=0;" vertex="1" parent="1">
          <mxGeometry y="430" width="50" height="100" as="geometry" />
        </mxCell>
        <mxCell id="hA0IL_piV-cJqZjO7HWO-6" value="Gerenciamento de hospedagem&amp;nbsp;" style="ellipse;whiteSpace=wrap;html=1;" vertex="1" parent="1">
          <mxGeometry x="300" y="60" width="130" height="80" as="geometry" />
        </mxCell>
        <mxCell id="hA0IL_piV-cJqZjO7HWO-8" value="" style="endArrow=classic;html=1;rounded=0;entryX=0;entryY=0.5;entryDx=0;entryDy=0;exitX=1;exitY=0.3333333333333333;exitDx=0;exitDy=0;exitPerimeter=0;" edge="1" parent="1" source="hA0IL_piV-cJqZjO7HWO-1" target="hA0IL_piV-cJqZjO7HWO-6">
          <mxGeometry width="50" height="50" relative="1" as="geometry">
            <mxPoint x="-30" y="270" as="sourcePoint" />
            <mxPoint x="20" y="220" as="targetPoint" />
          </mxGeometry>
        </mxCell>
        <mxCell id="hA0IL_piV-cJqZjO7HWO-9" value="" style="endArrow=classic;html=1;rounded=0;entryX=1;entryY=0.5;entryDx=0;entryDy=0;exitX=0;exitY=0.3333333333333333;exitDx=0;exitDy=0;exitPerimeter=0;" edge="1" parent="1" source="hA0IL_piV-cJqZjO7HWO-10" target="hA0IL_piV-cJqZjO7HWO-6">
          <mxGeometry width="50" height="50" relative="1" as="geometry">
            <mxPoint x="490" y="170" as="sourcePoint" />
            <mxPoint x="270" y="180" as="targetPoint" />
          </mxGeometry>
        </mxCell>
        <mxCell id="hA0IL_piV-cJqZjO7HWO-10" value="Funcionário de limpeza&amp;nbsp;" style="shape=umlActor;verticalLabelPosition=bottom;verticalAlign=top;html=1;outlineConnect=0;" vertex="1" parent="1">
          <mxGeometry x="630" y="140" width="50" height="100" as="geometry" />
        </mxCell>
        <mxCell id="hA0IL_piV-cJqZjO7HWO-11" value="Gerenciamento associados&amp;nbsp;" style="ellipse;whiteSpace=wrap;html=1;" vertex="1" parent="1">
          <mxGeometry x="290" y="180" width="150" height="70" as="geometry" />
        </mxCell>
        <mxCell id="hA0IL_piV-cJqZjO7HWO-12" value="" style="endArrow=classic;html=1;rounded=0;entryX=0;entryY=0.5;entryDx=0;entryDy=0;exitX=1;exitY=0.3333333333333333;exitDx=0;exitDy=0;exitPerimeter=0;" edge="1" parent="1" source="hA0IL_piV-cJqZjO7HWO-1" target="hA0IL_piV-cJqZjO7HWO-11">
          <mxGeometry width="50" height="50" relative="1" as="geometry">
            <mxPoint x="240" y="260" as="sourcePoint" />
            <mxPoint x="280" y="210" as="targetPoint" />
          </mxGeometry>
        </mxCell>
        <mxCell id="hA0IL_piV-cJqZjO7HWO-13" value="Gerenciamento de cliente" style="ellipse;whiteSpace=wrap;html=1;" vertex="1" parent="1">
          <mxGeometry x="295" y="280" width="140" height="80" as="geometry" />
        </mxCell>
        <mxCell id="hA0IL_piV-cJqZjO7HWO-14" value="Cliente" style="shape=umlActor;verticalLabelPosition=bottom;verticalAlign=top;html=1;outlineConnect=0;" vertex="1" parent="1">
          <mxGeometry x="630" y="440" width="50" height="90" as="geometry" />
        </mxCell>
        <mxCell id="hA0IL_piV-cJqZjO7HWO-15" value="Disponibilidade de quartos" style="ellipse;whiteSpace=wrap;html=1;" vertex="1" parent="1">
          <mxGeometry x="300" y="400" width="140" height="90" as="geometry" />
        </mxCell>
        <mxCell id="hA0IL_piV-cJqZjO7HWO-17" value="Gerenciamento do estoque" style="ellipse;whiteSpace=wrap;html=1;" vertex="1" parent="1">
          <mxGeometry x="300" y="530" width="140" height="80" as="geometry" />
        </mxCell>
        <mxCell id="hA0IL_piV-cJqZjO7HWO-18" value="Gerenciamento de promoções" style="ellipse;whiteSpace=wrap;html=1;" vertex="1" parent="1">
          <mxGeometry x="310" y="650" width="125" height="90" as="geometry" />
        </mxCell>
        <mxCell id="hA0IL_piV-cJqZjO7HWO-19" value="Funcionário de marketing&amp;nbsp;" style="shape=umlActor;verticalLabelPosition=bottom;verticalAlign=top;html=1;outlineConnect=0;" vertex="1" parent="1">
          <mxGeometry y="690" width="50" height="90" as="geometry" />
        </mxCell>
        <mxCell id="hA0IL_piV-cJqZjO7HWO-20" value="" style="endArrow=classic;html=1;rounded=0;exitX=1;exitY=0.3333333333333333;exitDx=0;exitDy=0;exitPerimeter=0;" edge="1" parent="1" source="hA0IL_piV-cJqZjO7HWO-1">
          <mxGeometry width="50" height="50" relative="1" as="geometry">
            <mxPoint x="80" y="260" as="sourcePoint" />
            <mxPoint x="290" y="320" as="targetPoint" />
          </mxGeometry>
        </mxCell>
      </root>
    </mxGraphModel>
  </diagram>
</mxfile>
